<?xml version="1.0" standalone="no"?>
<!DOCTYPE svg PUBLIC "-//W3C//DTD SVG 20010904//EN"
 "http://www.w3.org/TR/2001/REC-SVG-20010904/DTD/svg10.dtd">
<svg version="1.0" xmlns="http://www.w3.org/2000/svg"
 width="128.000000pt" height="128.000000pt" viewBox="0 0 128.000000 128.000000"
 preserveAspectRatio="xMidYMid meet">

<g transform="translate(0.000000,128.000000) scale(0.100000,-0.100000)"
fill="#000000" stroke="none">
<path d="M606 1045 c-145 -42 -224 -69 -233 -81 -9 -12 -13 -52 -13 -121 l0
-103 -104 0 c-85 0 -107 -3 -124 -17 -11 -10 -36 -63 -56 -119 -31 -87 -36
-112 -36 -190 0 -57 4 -94 12 -102 7 -7 40 -12 80 -12 64 0 69 -2 80 -26 31
-68 139 -70 174 -2 l15 28 239 0 239 0 15 -28 c35 -67 137 -67 172 -1 16 32
18 67 4 89 -8 13 3 16 78 20 l87 5 0 55 0 55 -41 3 c-35 3 -41 6 -37 22 3 10
16 21 29 24 39 10 55 46 52 113 l-3 58 -76 5 c-63 4 -80 9 -108 33 -30 25 -39
27 -123 27 l-90 0 -37 -40 c-35 -39 -39 -40 -99 -40 -104 0 -162 -38 -162
-105 0 -38 16 -55 51 -55 18 0 28 -6 32 -20 5 -19 0 -20 -68 -20 -88 0 -85 -6
-85 165 l0 120 58 66 57 66 144 41 c80 23 147 39 150 36 3 -2 -3 -17 -12 -33
-15 -25 -15 -30 -1 -50 16 -23 13 -51 -7 -51 -6 0 -13 9 -16 20 -3 11 -14 20
-24 20 -25 0 -25 -34 1 -60 11 -11 29 -20 40 -20 44 0 78 68 48 98 -9 9 -9 15
0 24 7 7 12 27 12 44 0 18 5 36 10 39 36 22 -18 86 -71 84 -19 -1 -133 -30
-253 -64z m289 16 c3 -6 -25 -19 -62 -30 -259 -76 -426 -121 -430 -117 -20 19
26 39 219 94 214 61 262 70 273 53z m-406 -197 c-13 -14 -25 -20 -27 -14 -7
20 7 40 29 40 l22 0 -24 -26z m-65 -76 c3 -46 8 -147 11 -225 6 -139 5 -143
-15 -143 -20 0 -20 5 -20 225 0 129 4 225 9 225 5 0 12 -37 15 -82z m496 -78
c0 -29 -1 -30 -50 -30 -54 0 -62 10 -33 42 9 10 30 18 50 18 30 0 33 -3 33
-30z m110 12 c31 -25 18 -42 -31 -42 -37 0 -39 2 -39 30 0 25 4 30 24 30 13 0
34 -8 46 -18z m-750 -85 l0 -63 -72 -17 c-40 -10 -83 -20 -95 -23 l-23 -6 27
73 c15 41 31 80 36 87 6 7 33 12 68 12 l59 0 0 -63z m80 -87 c0 -146 -1 -150
-19 -140 -43 23 -108 0 -129 -44 -7 -15 -20 -26 -31 -26 -16 0 -20 8 -23 38
-3 35 -5 37 -40 40 -35 3 -38 5 -38 35 l0 32 118 30 117 30 3 78 c3 69 5 77
22 77 19 0 20 -8 20 -150z m838 89 c-4 -56 -26 -70 -63 -41 -35 27 -75 28
-108 2 -22 -17 -40 -20 -137 -20 -97 0 -115 3 -137 20 -14 11 -38 20 -53 20
-15 0 -39 -9 -53 -20 -14 -11 -35 -20 -46 -20 -30 0 -27 34 6 60 25 19 36 21
113 15 263 -18 320 -17 353 4 21 13 49 21 80 21 l48 0 -3 -41z m-468 -74 c26
-32 -13 -81 -47 -59 -23 14 -28 41 -13 59 16 19 44 19 60 0z m380 0 c26 -32
-13 -81 -47 -59 -23 14 -28 41 -13 59 16 19 44 19 60 0z m-107 -45 c5 -19 0
-20 -113 -20 -113 0 -118 1 -113 20 5 18 14 20 113 20 99 0 108 -2 113 -20z
m-488 -80 c18 -20 17 -20 -8 -20 -20 0 -27 5 -27 20 0 11 4 20 8 20 5 0 17 -9
27 -20z m100 0 c18 -19 17 -20 -7 -20 -14 0 -33 9 -43 20 -18 19 -17 20 7 20
14 0 33 -9 43 -20z m100 0 c18 -19 17 -20 -7 -20 -14 0 -33 9 -43 20 -18 19
-17 20 7 20 14 0 33 -9 43 -20z m100 0 c18 -19 17 -20 -7 -20 -14 0 -33 9 -43
20 -18 19 -17 20 7 20 14 0 33 -9 43 -20z m100 0 c18 -19 17 -20 -7 -20 -14 0
-33 9 -43 20 -18 19 -17 20 7 20 14 0 33 -9 43 -20z m100 0 c18 -19 17 -20 -7
-20 -14 0 -33 9 -43 20 -18 19 -17 20 7 20 14 0 33 -9 43 -20z m100 0 c18 -19
17 -20 -7 -20 -14 0 -33 9 -43 20 -18 19 -17 20 7 20 14 0 33 -9 43 -20z m85
0 c0 -11 -4 -20 -8 -20 -5 0 -17 9 -27 20 -18 20 -17 20 8 20 20 0 27 -5 27
-20z m-1080 -80 c0 -13 -7 -20 -20 -20 -13 0 -20 7 -20 20 0 13 7 20 20 20 13
0 20 -7 20 -20z m220 0 c11 -11 20 -29 20 -40 0 -26 -34 -60 -60 -60 -26 0
-60 34 -60 60 0 11 9 29 20 40 11 11 29 20 40 20 11 0 29 -9 40 -20z m240 0
c0 -19 -7 -20 -90 -20 -83 0 -90 1 -90 20 0 19 7 20 90 20 83 0 90 -1 90 -20z
m310 0 c-10 -18 -21 -20 -140 -20 -123 0 -130 1 -130 20 0 19 7 20 140 20 138
0 140 0 130 -20z m130 0 c11 -11 20 -29 20 -40 0 -26 -34 -60 -60 -60 -11 0
-29 9 -40 20 -11 11 -20 29 -20 40 0 11 9 29 20 40 11 11 29 20 40 20 11 0 29
-9 40 -20z"/>
<path d="M260 480 c0 -16 7 -20 30 -20 23 0 30 4 30 20 0 16 -7 20 -30 20 -23
0 -30 -4 -30 -20z"/>
</g>
</svg>
