<?xml version="1.0" standalone="no"?>
<!DOCTYPE svg PUBLIC "-//W3C//DTD SVG 20010904//EN"
 "http://www.w3.org/TR/2001/REC-SVG-20010904/DTD/svg10.dtd">
<svg version="1.0" xmlns="http://www.w3.org/2000/svg"
 width="128.000000pt" height="128.000000pt" viewBox="0 0 128.000000 128.000000"
 preserveAspectRatio="xMidYMid meet">

<g transform="translate(0.000000,128.000000) scale(0.100000,-0.100000)"
fill="#000000" stroke="none">
<path d="M690 1106 c0 -7 -9 -16 -20 -19 -11 -3 -20 -10 -20 -17 0 -7 9 -14
20 -17 11 -3 20 -12 20 -19 0 -8 7 -14 15 -14 8 0 15 6 15 14 0 7 9 16 20 19
11 3 20 10 20 17 0 7 -9 14 -20 17 -11 3 -20 12 -20 19 0 8 -7 14 -15 14 -8 0
-15 -6 -15 -14z"/>
<path d="M873 1009 c-17 -5 -49 -29 -71 -54 l-40 -45 -165 0 c-133 0 -167 -3
-177 -15 -17 -20 -7 -53 30 -97 l31 -38 142 0 142 0 29 -36 c59 -74 163 -92
242 -44 38 24 74 77 74 109 0 28 -27 27 -35 -1 -9 -30 -43 -66 -77 -84 -61
-32 -147 -7 -184 53 -10 15 -20 30 -22 33 -2 3 -71 7 -153 10 l-150 5 -20 33
-21 32 36 0 c25 0 36 -4 36 -15 0 -8 9 -15 20 -15 11 0 20 7 20 15 0 8 9 15
20 15 11 0 20 -7 20 -15 0 -8 6 -15 14 -15 8 0 16 7 20 15 3 8 12 15 20 15 7
0 16 -7 20 -15 3 -8 12 -15 21 -15 8 0 15 7 15 15 0 10 10 15 33 15 38 0 47 6
70 43 38 60 124 85 185 53 34 -18 68 -54 77 -83 8 -30 35 -30 35 0 0 36 -46
93 -93 116 -46 22 -91 25 -144 10z"/>
<path d="M915 885 c-14 -13 -25 -36 -25 -50 0 -33 41 -75 73 -75 40 0 77 36
77 75 0 24 -7 39 -26 54 -35 28 -69 26 -99 -4z m80 -50 c0 -25 -4 -30 -24 -30
-32 0 -49 28 -31 50 7 9 23 15 34 13 16 -2 21 -10 21 -33z"/>
<path d="M1183 681 c-3 -11 -13 -21 -24 -24 -25 -7 -25 -37 1 -37 13 0 20 -7
20 -20 0 -26 30 -26 37 -1 3 11 13 21 24 24 10 3 19 10 19 17 0 7 -9 14 -19
17 -11 3 -21 13 -24 24 -3 10 -10 19 -17 19 -7 0 -14 -9 -17 -19z"/>
<path d="M335 646 c-22 -7 -71 -29 -110 -48 -38 -20 -86 -39 -105 -43 -85 -17
-120 -68 -120 -171 0 -87 18 -115 89 -139 27 -9 57 -25 67 -36 58 -64 150 -64
208 0 18 19 29 21 163 21 132 0 144 1 141 18 -3 14 -16 18 -76 20 -39 2 -72 4
-72 5 0 1 -13 49 -30 106 -16 58 -29 106 -27 107 6 7 317 -18 348 -27 34 -11
38 -16 52 -73 9 -33 16 -73 15 -88 0 -27 -2 -27 -72 -30 -58 -2 -71 -6 -74
-21 -3 -15 6 -17 76 -17 67 0 82 -3 98 -21 58 -64 150 -64 208 0 15 17 31 21
77 21 48 0 60 4 73 22 16 22 22 111 10 142 -8 22 -132 111 -173 125 -19 6 -66
11 -105 11 -60 0 -73 3 -84 20 -7 12 -23 20 -38 20 -14 0 -40 10 -56 22 -17
12 -56 32 -87 44 -50 21 -72 23 -206 23 -93 0 -165 -5 -190 -13z m77 -71 c-4
-42 -6 -45 -33 -45 -29 0 -79 37 -79 59 0 9 59 28 95 30 18 1 20 -4 17 -44z
m324 19 c51 -24 55 -28 49 -53 -4 -14 -8 -28 -10 -30 -2 -2 -75 1 -162 5
l-158 9 -3 33 c-6 61 -3 62 118 62 99 0 117 -3 166 -26z m-443 -60 c26 -29 42
-37 80 -41 l47 -6 21 -71 c11 -39 23 -80 25 -91 3 -11 8 -28 10 -37 5 -15 -2
-18 -38 -18 -42 0 -43 1 -45 36 -5 96 -117 155 -200 104 -41 -24 -62 -57 -65
-99 -2 -30 -4 -32 -32 -27 -37 8 -56 23 -56 47 0 13 7 19 24 19 14 0 32 7 40
16 31 30 13 104 -24 104 -11 0 -20 4 -20 10 0 12 53 40 77 40 10 0 41 11 68
24 28 14 51 25 52 25 2 1 18 -15 36 -35z m587 -19 c0 -21 -5 -25 -30 -25 -22
0 -30 5 -30 18 0 25 9 32 37 32 18 0 23 -5 23 -25z m277 -71 c37 -26 71 -52
75 -58 15 -22 8 -45 -14 -48 -31 -4 -34 -26 -4 -34 46 -11 31 -34 -21 -34 -48
0 -48 0 -50 36 -5 100 -122 157 -206 100 l-35 -24 -6 33 c-5 25 -2 40 11 54
15 18 29 21 100 21 81 0 82 0 150 -46z m-1077 -34 c0 -13 -7 -20 -20 -20 -13
0 -20 7 -20 20 0 13 7 20 20 20 13 0 20 -7 20 -20z m245 -44 c32 -32 40 -69
25 -107 -17 -39 -46 -59 -90 -59 -44 0 -73 20 -90 59 -15 38 -7 75 25 107 33
33 97 33 130 0z m750 0 c13 -13 27 -36 31 -50 8 -32 -12 -82 -40 -101 -26 -19
-86 -19 -112 0 -28 19 -48 69 -40 101 18 71 111 100 161 50z"/>
<path d="M215 340 c-37 -41 -9 -110 46 -110 28 0 69 39 69 65 0 7 -9 24 -21
39 -25 32 -68 35 -94 6z m70 -45 c0 -22 -31 -33 -47 -17 -17 17 -1 44 24 40
15 -2 23 -10 23 -23z"/>
<path d="M965 340 c-37 -41 -9 -110 46 -110 28 0 69 39 69 65 0 7 -9 24 -21
39 -25 32 -68 35 -94 6z m70 -45 c0 -22 -31 -33 -47 -17 -17 17 -1 44 24 40
15 -2 23 -10 23 -23z"/>
<path d="M528 439 c-9 -6 -10 -11 -2 -19 14 -14 80 -9 77 5 -3 14 -58 24 -75
14z"/>
</g>
</svg>
