<?xml version="1.0" standalone="no"?>
<!DOCTYPE svg PUBLIC "-//W3C//DTD SVG 20010904//EN"
 "http://www.w3.org/TR/2001/REC-SVG-20010904/DTD/svg10.dtd">
<svg version="1.0" xmlns="http://www.w3.org/2000/svg"
 width="128.000000pt" height="128.000000pt" viewBox="0 0 128.000000 128.000000"
 preserveAspectRatio="xMidYMid meet">

<g transform="translate(0.000000,128.000000) scale(0.100000,-0.100000)"
fill="#000000" stroke="none">
<path d="M270 1220 l0 -60 -135 0 -135 0 0 -580 0 -580 390 0 390 0 0 60 0 60
135 0 135 0 0 89 0 89 48 12 c26 6 77 14 115 17 57 5 67 9 67 24 0 16 -8 19
-52 19 -29 0 -90 -9 -136 -20 -104 -25 -130 -25 -217 0 -50 14 -100 20 -177
20 -87 0 -108 3 -108 14 0 38 27 46 158 46 150 0 175 9 180 60 3 28 -2 39 -23
56 -22 18 -25 24 -16 47 6 15 17 27 25 27 8 0 54 -27 103 -60 l88 -60 87 0
c81 0 88 2 88 20 0 18 -7 20 -79 20 -65 0 -84 4 -112 23 l-34 23 -3 347 -2
347 -390 0 -390 0 0 -60z m740 -291 c0 -171 -3 -309 -7 -307 -14 7 -88 42 -91
44 -1 1 16 68 39 150 22 82 41 164 42 183 1 42 -31 71 -78 71 -46 0 -68 -31
-94 -132 -36 -139 -40 -135 -40 50 l-1 172 -216 0 -215 0 3 -22 c3 -23 4 -23
195 -26 l193 -2 0 -224 0 -224 -42 -7 c-24 -4 -94 -9 -155 -11 -104 -5 -113
-7 -113 -25 0 -17 8 -19 82 -19 80 0 81 0 63 -20 -13 -14 -33 -20 -79 -22 -49
-2 -61 -7 -64 -20 -3 -15 4 -18 38 -18 l42 0 -26 -31 c-14 -17 -26 -41 -26
-54 0 -23 41 -65 64 -65 6 0 19 -9 29 -20 12 -14 29 -20 57 -20 40 0 40 0 40
-39 0 -22 6 -44 15 -51 8 -7 15 -20 15 -30 0 -26 30 -34 46 -13 11 16 13 6 14
-69 l0 -88 -350 0 -350 0 0 535 0 535 135 0 135 0 0 65 0 65 350 0 350 0 0
-311z m-62 74 c2 -12 -2 -40 -8 -63 -10 -39 -13 -41 -38 -35 -15 3 -30 10 -34
14 -9 8 9 80 25 99 16 20 52 10 55 -15z m-28 -152 c-1 -22 -20 -33 -49 -26
-29 6 -42 31 -25 47 6 7 74 -13 74 -21z m-52 -67 c12 -4 22 -14 22 -23 -1 -9
-18 -77 -38 -151 l-37 -135 -38 -3 c-20 -2 -37 0 -37 4 0 30 85 314 94 314 6
0 21 -3 34 -6z m-138 -173 c0 -25 -21 -61 -36 -61 -10 0 -51 -32 -91 -72 -70
-67 -75 -70 -91 -54 -16 16 -12 22 74 106 68 68 98 90 118 90 14 0 26 -4 26
-9z m160 -116 c0 -7 -7 -15 -15 -19 -16 -6 -19 3 -9 28 7 18 24 12 24 -9z
m-193 -10 c-7 -16 -37 -21 -37 -5 0 10 32 31 39 25 2 -2 1 -11 -2 -20z m73
-169 c0 -8 -5 -27 -10 -41 -8 -21 -16 -26 -38 -23 -28 3 -40 32 -28 64 7 19
76 19 76 0z m114 -11 c27 -8 66 -15 88 -15 l38 0 0 -60 0 -60 -115 0 c-103 0
-115 2 -115 18 0 29 34 132 45 132 6 0 32 -7 59 -15z"/>
<path d="M80 970 l0 -100 270 0 270 0 0 100 0 100 -270 0 -270 0 0 -100z m500
0 l0 -60 -230 0 -230 0 0 60 0 60 230 0 230 0 0 -60z"/>
<path d="M170 970 c0 -13 7 -20 20 -20 13 0 20 7 20 20 0 13 -7 20 -20 20 -13
0 -20 -7 -20 -20z"/>
<path d="M250 970 c0 -13 7 -20 20 -20 13 0 20 7 20 20 0 13 -7 20 -20 20 -13
0 -20 -7 -20 -20z"/>
<path d="M330 970 c0 -13 7 -20 20 -20 13 0 20 7 20 20 0 13 -7 20 -20 20 -13
0 -20 -7 -20 -20z"/>
<path d="M410 970 c0 -13 7 -20 20 -20 13 0 20 7 20 20 0 13 -7 20 -20 20 -13
0 -20 -7 -20 -20z"/>
<path d="M500 970 c0 -13 7 -20 20 -20 13 0 20 7 20 20 0 13 -7 20 -20 20 -13
0 -20 -7 -20 -20z"/>
<path d="M300 725 c-74 -74 -97 -92 -107 -83 -11 9 -18 8 -29 -3 -12 -13 -11
-18 14 -42 l28 -27 109 110 c97 98 108 111 94 125 -13 13 -25 4 -109 -80z"/>
<path d="M80 620 l0 -120 125 0 125 0 0 60 c0 53 -2 60 -20 60 -17 0 -20 -7
-20 -40 l0 -40 -85 0 -85 0 0 80 0 80 65 0 c58 0 65 2 65 20 0 18 -7 20 -85
20 l-85 0 0 -120z"/>
<path d="M430 700 c0 -19 7 -20 135 -20 128 0 135 1 135 20 0 19 -7 20 -135
20 -128 0 -135 -1 -135 -20z"/>
<path d="M300 375 c-74 -74 -97 -92 -107 -83 -11 9 -18 8 -29 -3 -12 -13 -11
-18 14 -42 l28 -27 109 110 c97 98 108 111 94 125 -13 13 -25 4 -109 -80z"/>
<path d="M82 268 l3 -123 123 -3 122 -3 0 66 c0 58 -2 65 -20 65 -17 0 -20 -7
-20 -40 l0 -40 -85 0 -85 0 0 80 0 80 65 0 c58 0 65 2 65 20 0 18 -7 20 -85
20 l-86 0 3 -122z"/>
<path d="M390 120 c0 -19 7 -20 115 -20 108 0 115 1 115 20 0 19 -7 20 -115
20 -108 0 -115 -1 -115 -20z"/>
<path d="M660 120 c0 -13 7 -20 20 -20 13 0 20 7 20 20 0 13 -7 20 -20 20 -13
0 -20 -7 -20 -20z"/>
</g>
</svg>
